<svg width="453" height="116" viewBox="0 0 453 116" fill="none" xmlns="http://www.w3.org/2000/svg">
<path d="M48.9834 88.6191L67.0208 115.013H47.0789L31.7303 92.3897H18.0623V115.013H0.136963V31.8279H33.7469C51 31.8279 64.7801 44.914 64.7801 62.1032C64.7801 73.7476 58.5063 83.5067 48.9834 88.608V88.6191ZM32.5146 77.6291C42.0374 77.6291 46.8548 71.086 46.8548 62.1032C46.8548 53.1205 42.0374 46.5774 32.5146 46.5774H18.0623V77.6291H32.5146Z" fill="white"/>
<path d="M159.112 73.4149C159.112 98.6998 139.954 115.556 115.307 115.556C90.6596 115.556 71.502 98.6998 71.502 73.4149C71.502 48.13 90.6596 31.2734 115.307 31.2734C139.954 31.2734 159.112 48.13 159.112 73.4149ZM119.004 0L132.112 5.54493L120.685 19.5182H108.809L119.004 0Z" fill="white"/>
<path d="M199.22 46.5774V115.002H181.295V46.5774H157.992V31.8279H222.411V46.5774H199.22Z" fill="white"/>
<path d="M300.834 81.8432C300.834 95.4838 295.345 116 266.216 116C237.087 116 231.374 95.4838 231.374 81.8432V31.8279H249.299V81.8432C249.299 85.9465 250.195 101.25 266.216 101.25C282.237 101.25 282.909 85.9465 282.909 81.8432V31.8279H300.834V81.8432Z" fill="white"/>
<path d="M365.253 115.013H312.037V31.8279H329.963V100.252H365.253V115.002V115.013Z" fill="white"/>
<path d="M452.863 73.415C452.863 98.6999 433.705 115.556 409.058 115.556C384.411 115.556 365.253 98.6999 365.253 73.415C365.253 48.1301 384.411 31.2735 409.058 31.2735C433.705 31.2735 452.863 48.1301 452.863 73.415ZM383.178 73.415C383.178 89.2735 393.598 100.807 409.058 100.807C424.519 100.807 434.938 89.2735 434.938 73.415C434.938 57.5564 424.519 46.023 409.058 46.023C393.598 46.023 383.178 57.6673 383.178 73.415Z" fill="white"/>
<path d="M84.9685 71.8956H91.6009V74.8788H84.9685V81.6214H81.3499V64.8203H93.1918V67.8035H84.9797V71.9067L84.9685 71.8956Z" fill="#4D2A7C"/>
<path d="M105.426 78.4608H98.6814L97.4155 81.6214H93.864L100.608 64.8203H103.51L110.254 81.6214H106.703L105.437 78.4608H105.426ZM104.205 75.4776L102.054 70.1434L99.9026 75.4776H104.205ZM103.14 62.3251H100.743L102.804 58.3771L105.448 59.4972L103.14 62.3251Z" fill="#4D2A7C"/>
<path d="M120.237 81.7324C115.464 81.7324 111.386 77.9951 111.386 73.2154C111.386 68.4357 115.464 64.6984 120.237 64.6984C122.925 64.6984 125.625 65.9959 126.981 68.3913L124.539 70.1435C123.654 68.8238 122.253 67.6816 120.192 67.6816C117.156 67.6816 115.005 70.077 115.005 73.2154C115.005 76.3538 117.156 78.7493 120.192 78.7493C122.253 78.7493 123.631 77.6292 124.539 76.3095L126.981 78.0617C125.625 80.4349 122.925 81.7324 120.237 81.7324Z" fill="#4D2A7C"/>
<path d="M130.824 81.6214V64.8203H134.442V81.6214H130.824Z" fill="#4D2A7C"/>
<path d="M149.276 81.6214H138.521V64.8203H142.139V78.6493H149.264V81.6325L149.276 81.6214Z" fill="#4D2A7C"/>
</svg>
